<svg width="212" height="37" viewBox="0 0 212 37" fill="none" xmlns="http://www.w3.org/2000/svg">
<path d="M45.9421 0.233027C44.854 0.758297 43.7752 2.61953 43.1398 5.05346C42.8292 6.24973 42.7999 6.55587 42.9386 6.69558C43.0916 6.84946 43.1754 6.80786 43.4133 6.48845C44.0009 5.6972 45.2554 5.35361 46.2842 5.71953C47.1749 6.02877 48.1678 8.69091 48.6571 12.0898C49.4719 17.8974 49.3129 23.4511 48.2397 27.5404C47.8443 29.0563 47.1697 30.7242 46.75 31.2662C46.5824 31.4599 46.2476 31.723 45.9964 31.8202C45.4107 32.0683 44.4647 31.8004 43.701 31.1713C43.3956 30.9337 43.1594 30.7796 43.1592 30.8216C43.1583 31.0858 44.2211 33.7485 44.6362 34.4881C45.5079 36.0779 46.2713 36.7489 47.2461 36.7522C49.4183 36.7602 51.075 33.0351 51.9771 26.1474C52.4063 22.9053 52.4594 15.7781 52.0948 12.6866C51.4185 7.07384 49.9448 2.4193 48.2937 0.700853C47.697 0.0723934 47.5862 0.00225195 47.0151 0.000251897C46.681 -0.0008179 46.1932 0.10893 45.9421 0.233027Z" fill="#0129AC"/>
<path d="M36.8811 3.34571C36.2112 3.71909 35.4119 5.31723 34.8193 7.50043C34.4521 8.87784 33.9341 13.4697 34.0854 14.0825C34.2641 14.7793 34.5296 14.4463 34.8405 13.1385C35.3493 11.0941 35.9659 9.9685 36.4807 10.1791C36.8143 10.3061 37.4774 11.8532 37.848 13.3445C38.6169 16.4376 38.6581 20.4328 37.9447 25.2331C37.7736 26.4157 37.6043 27.0275 37.1834 27.903C36.257 29.8764 35.812 29.7639 35.0269 27.3663C34.5032 25.8054 34.2259 25.4842 34.0421 26.2215C33.9009 26.75 34.8041 31.25 35.4238 33.1868C36.1814 35.5141 36.9853 36.4781 37.767 35.9794C38.2698 35.6473 39.1956 33.6741 39.6055 32.0747C40.3254 29.251 40.7037 24.8112 40.7244 18.9787C40.7493 12.0323 40.1514 7.75604 38.7834 4.86971C38.3826 4.0472 38.1056 3.64202 37.786 3.44634C37.2718 3.12424 37.2997 3.12424 36.8811 3.34571Z" fill="#0129AC"/>
<path d="M25.7825 6.8968C24.7912 7.67245 23.9754 9.99409 23.672 12.9584C23.5429 14.1277 23.4829 15.1714 23.5244 15.2966C23.6899 15.7148 23.9141 15.4096 24.2804 14.2413C24.8152 12.5447 25.2775 11.8504 25.7085 12.1168C25.9864 12.2847 26.7589 14.1944 27.0058 15.3089C27.2115 16.2005 27.2646 16.9948 27.2564 19.2774C27.2414 23.4956 26.7311 25.9577 25.6973 26.9286C25.1243 27.469 24.9021 27.2039 24.1854 25.2107C23.9368 24.5555 23.6456 24.3599 23.4906 24.777C23.4482 24.9017 23.5295 25.6261 23.6937 26.4064C24.3505 29.6938 25.1365 31.8263 25.928 32.4137C26.2893 32.6801 26.3447 32.6801 26.6802 32.5002C27.461 32.0579 28.3457 30.0283 28.7583 27.6632C28.8859 26.9951 29.0742 25.0192 29.2055 23.2519C29.7625 15.4859 28.7983 8.53624 26.9381 6.97043C26.4247 6.53688 26.2575 6.52216 25.7825 6.8968Z" fill="#0129AC"/>
<path d="M62.8962 2.28227C60.9739 2.53972 58.9369 3.42365 57.1081 4.82285C56.6054 5.2253 56.4518 5.25219 55.1567 5.3314C54.0286 5.39698 53.6243 5.47875 53.038 5.78272C52.634 5.97658 52.299 6.17008 52.2988 6.21187C52.2988 6.23966 52.4772 6.83907 52.712 7.55002C53.2072 9.12436 53.605 10.9356 53.8074 12.7182L53.9698 14.0689L54.7511 13.5291C55.1698 13.2244 55.8675 12.8512 56.3002 12.6853C57.1923 12.3545 58.9057 12.2071 59.7269 12.3912C60.2695 12.5191 60.2972 12.5049 61.387 11.5899C64.1945 9.21979 67.4009 8.18724 70.1006 8.767C72.1733 9.20634 73.8827 10.2707 75.8524 12.3376L77.0734 13.623L77.8819 13.5278C79.5115 13.3534 81.7237 13.9877 82.9594 14.9801C83.6538 15.5257 84.3739 16.5306 84.7882 17.4787L85.1337 18.301L85.0542 17.1873C84.7246 11.9933 81.0748 8.48663 75.1178 7.64358C74.5464 7.55835 73.614 7.44371 73.0298 7.39955L71.9713 7.31197L71.32 6.41897C69.1448 3.43256 65.9751 1.87563 62.8962 2.28227Z" fill="#0129AC"/>
<path d="M66.4164 10.9102C64.6041 11.433 63.069 12.3741 61.839 13.6925L61.0557 14.5248L59.97 14.3674C58.0911 14.0967 56.1122 14.4654 54.8705 15.3239L54.2142 15.7676L54.2077 17.605C54.1988 20.0829 53.9809 22.6015 53.467 26.122C53.2382 27.7217 53.0527 29.0577 53.0527 29.0715C53.0525 29.0992 54.3472 29.1179 55.9207 29.1235L58.7899 29.1337L58.3595 28.6449C56.5148 26.5362 56.3592 23.2925 57.9692 20.9596C59.0753 19.3625 61.4037 18.605 63.6018 19.128C64.1445 19.2548 64.1445 19.2548 65.2065 18.2564C67.4836 16.0933 69.7429 15.2519 72.1088 15.664C74.0289 16.0054 75.5294 17.0823 76.4008 18.7419L76.9122 19.7179L77.5678 19.3867C79.9118 18.2259 82.3193 18.735 84.2614 20.8026C85.0384 21.6266 85.0798 21.5853 84.7502 20.4419C83.7042 16.8748 80.8561 14.9434 77.373 15.4182C76.3845 15.5541 76.2731 15.5396 76.1068 15.3166C76.0097 15.1769 75.6495 14.6742 75.3169 14.2001C73.4051 11.4922 69.4414 10.0305 66.4164 10.9102Z" fill="#0129AC"/>
<path d="M69.5406 17.6903C68.2861 18.0481 67.142 18.74 65.9961 19.8632L64.8915 20.931L63.9043 20.7052C62.081 20.3231 60.478 20.7349 59.4857 21.8451C58.7866 22.6358 58.6037 23.192 58.5987 24.6119C58.5918 26.5607 59.2137 27.8996 60.5747 28.8506L61.1997 29.2848L71.226 29.3202C77.5622 29.3429 81.5868 29.3021 82.1581 29.2061C83.2167 29.0431 84.096 28.5729 84.5577 27.9341C84.851 27.5315 84.8803 27.3089 84.9277 25.6383C84.9902 23.8154 84.9761 23.7734 84.6024 23.2289C84.0205 22.378 83.0903 21.5811 82.145 21.1318C80.6437 20.417 78.5543 20.604 76.81 21.6142C76.1261 22.0153 76.0562 22.0291 76.0572 21.765C76.0587 21.3749 75.0619 19.5894 74.5214 19.0305C73.3277 17.8012 71.2132 17.2232 69.5406 17.6903Z" fill="#0129AC"/>
<path d="M44.2456 8.20235C43.3396 8.43563 41.9449 9.02939 41.6655 9.29265C41.6092 9.34842 41.6896 10.3232 41.8387 11.4795C42.3944 15.6989 42.4289 21.6849 41.9093 26.7784C41.8223 27.6687 41.7919 28.4343 41.8476 28.4907C41.8888 28.5461 42.9195 28.5917 44.1166 28.596L46.2893 28.6037L46.4728 27.9777C46.5853 27.6303 46.8118 26.5316 46.9965 25.5436C48.0184 20.1323 47.8167 14.2704 46.429 9.00337C46.14 7.94483 46.1267 7.93048 45.6946 7.9432C45.4579 7.94234 44.8031 8.06499 44.2456 8.20235Z" fill="#0129AC"/>
<path d="M35.7303 13.1693C35.4781 13.5164 35.1001 14.1414 34.8896 14.5867C34.4544 15.5035 34.5105 15.4761 32.1563 15.6209L30.6518 15.713L30.7334 16.3395C30.7742 16.6736 30.8143 17.1753 30.8134 17.4258L30.8117 17.8713L31.828 17.8188C32.6224 17.7661 32.9287 17.795 33.3178 18.0052C34.2491 18.4958 34.3153 19.443 33.4362 19.8992C33.0597 20.1067 32.7532 20.1334 31.8894 20.0882L30.8041 20.0148L30.7998 21.1981L31.9552 21.1887C33.2227 21.179 33.8626 21.432 33.8608 21.947C33.859 22.462 33.2173 22.7103 31.8944 22.7056L30.6831 22.7013L30.5978 23.1044C30.3998 24.0505 30.3161 24.0083 32.4743 24.0578L34.4513 24.1068L34.6026 24.7337C34.6986 25.0963 34.9058 25.598 35.0582 25.8634C35.3767 26.3796 36.0288 27.0502 36.1265 26.9525C36.252 26.8278 36.9048 23.4615 37.0767 22.0975C37.4217 19.1614 37.089 14.8168 36.3709 13.0464L36.1778 12.5583L35.7303 13.1693Z" fill="#0129AC"/>
<path d="M12.9907 16.8615C6.13697 17.3664 0.301023 17.791 0.0363482 17.8319C-0.228513 17.873 0.982684 17.8908 2.73775 17.8551C4.49256 17.8337 10.4388 17.827 15.9393 17.8468L25.9376 17.8822L25.9389 17.5202C25.9405 17.0613 25.652 15.9319 25.5405 15.9457C25.4985 15.9589 19.8437 16.3708 12.9907 16.8615Z" fill="#0129AC"/>
<path d="M14.44 20.764L4.69043 21.2442L15.1757 21.3093L25.6479 21.3609L25.7884 20.999C26.0553 20.3038 25.9999 20.248 25.0665 20.2589C24.5791 20.2708 19.8023 20.5047 14.44 20.764Z" fill="#0129AC"/>
<path d="M17.5602 23.4211L10.1084 23.9094L13.1159 23.9478C14.7733 23.954 18.1983 24.0221 20.7189 24.0866L25.3275 24.1868L25.4829 23.6439C25.6944 22.9071 25.6803 22.8929 25.332 22.9056C25.1514 22.9187 21.6551 23.1572 17.5602 23.4211Z" fill="#0129AC"/>
<path d="M107.404 9.2298C107.252 9.2567 106.67 9.43469 106.102 9.62678C102.334 10.9128 99.9273 14.5423 100.148 18.6369C100.38 23.3544 103.882 26.9218 108.571 27.2149C111.352 27.3908 114.317 26.2399 115.762 24.4329L116.054 24.0604L114.91 22.9639L113.779 21.8535L113.016 22.5698C111.905 23.6174 110.963 24.0007 109.399 24.0509C106.853 24.1386 104.975 23.0112 103.932 20.7534C103.341 19.5065 103.251 17.6386 103.699 16.1881C104.147 14.7233 105.216 13.4679 106.561 12.8229C108.654 11.8068 110.812 12.0359 112.564 13.4534L113.446 14.1615L114.572 13.0314L115.697 11.9148L114.951 11.2344C114.028 10.3874 112.633 9.63568 111.472 9.35497C110.656 9.15884 108.097 9.08032 107.404 9.2298Z" fill="#0129AC"/>
<path d="M117.545 18.1589L117.514 26.8729L120.696 26.8841L120.758 9.45626L117.576 9.44507L117.545 18.1589Z" fill="#0129AC"/>
<path d="M127.239 14.7357C123.307 15.4681 121.176 19.4309 122.559 23.4055C123.422 25.8708 126.101 27.5121 128.91 27.2868C132.578 26.9821 134.87 24.3067 134.649 20.5855C134.57 19.2023 134.228 18.1771 133.485 17.1095C132.879 16.2223 131.554 15.2629 130.518 14.9551C129.619 14.6892 128.056 14.5729 127.239 14.7357ZM130.161 18.1347C132.106 19.5251 131.914 22.9685 129.835 24.0124C128.255 24.795 126.458 24.1661 125.648 22.5307C124.837 20.9097 125.579 18.6171 127.159 17.8894C128.032 17.4908 129.387 17.6067 130.161 18.1347Z" fill="#0129AC"/>
<path d="M136.109 19.5656L136.134 24.1028L136.491 24.8648C136.971 25.89 137.412 26.3895 138.296 26.8766C138.959 27.2523 139.138 27.2949 140.343 27.2992C141.505 27.3032 141.754 27.2624 142.447 26.9192C142.89 26.6999 143.459 26.2869 143.709 25.983C143.973 25.6936 144.223 25.4458 144.264 25.4458C144.32 25.4461 144.36 25.7919 144.359 26.2067L144.356 26.9676L147.262 26.9781L147.304 15.0827L144.122 15.0713L144.11 18.3637C144.097 22.1671 143.984 22.7617 143.151 23.6297C142.664 24.14 141.902 24.4691 141.252 24.4668C140.629 24.4507 139.815 23.9361 139.54 23.3683C139.265 22.8415 139.252 22.5781 139.265 18.927L139.279 15.0542L136.083 15.043L136.109 19.5656Z" fill="#0129AC"/>
<path d="M158.132 13.047C158.152 14.9563 158.119 16.505 158.063 16.5047C158.008 16.5047 157.898 16.3799 157.816 16.2272C157.568 15.7565 156.477 15.1159 155.537 14.8778C153.464 14.3586 151.136 15.3319 149.856 17.2502C148.868 18.7264 148.488 20.6476 148.855 22.4196C149.29 24.5374 150.323 25.9518 152.077 26.8158C153.058 27.3173 153.21 27.3453 154.372 27.3498C155.465 27.3534 155.728 27.2992 156.421 26.9692C156.851 26.7636 157.392 26.3778 157.628 26.1164C157.864 25.8547 158.087 25.6339 158.128 25.6339C158.169 25.6342 158.196 25.9384 158.194 26.3258L158.192 27.0174L161.098 27.0277L161.16 9.60005L158.102 9.58887L158.132 13.047ZM156.259 17.9648C158.318 18.8295 158.847 21.6804 157.278 23.4179C155.986 24.8517 153.98 24.8168 152.698 23.3466C152.257 22.8467 151.846 21.7109 151.849 21.0469C151.851 20.397 152.256 19.3339 152.673 18.8226C153.507 17.8167 155.058 17.4483 156.259 17.9648Z" fill="#0129AC"/>
<path d="M163.881 9.70684C163.825 9.74817 163.769 13.6764 163.752 18.4203L163.722 27.0375L167.042 27.0496L167.067 20.1339L173.985 20.1588L173.996 16.977L167.078 16.9526L167.093 12.8032L174.855 12.8308L174.819 11.2677L174.783 9.71857L169.374 9.65755C166.399 9.63354 163.936 9.65196 163.881 9.70684Z" fill="#0129AC"/>
<path d="M175.79 19.2376C175.774 23.498 175.855 24.2172 176.446 25.3952C176.803 26.088 177.479 26.7403 178.239 27.1304C178.763 27.3813 179.109 27.4378 180.119 27.4414C181.641 27.4467 182.528 27.1042 183.375 26.1942C183.681 25.8634 183.971 25.588 184 25.588C184.041 25.588 184.068 25.934 184.066 26.3489L184.064 27.1094L187.107 27.1203L187.15 15.2252L183.995 15.214L183.927 18.6995C183.874 21.9081 183.845 22.2537 183.581 22.8202C182.577 24.919 180.071 25.2004 179.221 23.3029C178.987 22.7897 178.961 22.3335 178.973 18.9582L178.986 15.1964L175.804 15.1848L175.79 19.2376Z" fill="#0129AC"/>
<path d="M189.222 16.6151L189.217 17.9983L192.109 18.0359L195.014 18.088L192.028 21.2862L189.055 24.4846L189.046 27.1266L199.008 27.162L199.018 24.3956L196.057 24.3575L193.096 24.3053L196.068 21.1073L199.041 17.9093L199.05 15.2668L189.227 15.2319L189.222 16.6151Z" fill="#0129AC"/>
<path d="M204.72 15.0136C203.225 15.3263 201.671 16.4132 200.808 17.7518C199.5 19.7945 199.531 22.9208 200.866 24.9034C202.916 27.9539 207.618 28.524 210.312 26.0573C210.659 25.7405 211.117 25.2302 211.326 24.9271L211.715 24.3609L209.119 23.0516L208.604 23.6173C207.869 24.4304 207.176 24.7323 206.11 24.7283C205.045 24.711 204.147 24.3205 203.638 23.6406C203.252 23.1415 202.882 22.1997 202.993 22.0341C203.021 21.9652 205.055 21.9307 207.49 21.9395L211.931 21.9551L211.853 20.7515C211.761 19.2157 211.488 18.3297 210.8 17.276C210.18 16.3472 209.228 15.6379 208.109 15.2474C207.266 14.9535 205.564 14.851 204.72 15.0136ZM206.952 17.6497C207.615 17.8454 208.25 18.3873 208.58 19.0529C208.73 19.3432 208.854 19.6201 208.854 19.6618C208.854 19.7035 207.581 19.7268 206.018 19.7212C202.849 19.71 202.904 19.7241 203.586 18.7991C204.392 17.6822 205.597 17.2713 206.952 17.6497Z" fill="#0129AC"/>
</svg>
